# xmcd CD database file
#
# Track frame offsets:
#	150
#	14356
#	40737
#	65766
#	82260
#	109100
#	137570
#	158526
#	182852
#	207693
#	224314
#
# Disc length: 3213 seconds
#
# Revision: 0
# Processed by: cddbd v1.5.1PL0 Copyright (c) Steve Scherf et al.
# Submitted via: CDex 1.51
#
DISCID=a00c8b0b
DTITLE=Louise Goldberg - Here
DYEAR=2003
DGENRE=Jazz
TTITLE0=Bye Bye Blackbird
TTITLE1=Centerpiece
TTITLE2=Blue Bossa
TTITLE3=Says My Heart
TTITLE4=How Deep is the Ocean
TTITLE5=Beale St. Blues
TTITLE6=Walkin' the Dog
TTITLE7=James
TTITLE8=Under a Blanke of Blue
TTITLE9=Where the Hell Are You
TTITLE10=My Baby Just Cares for Me
EXTD=YEAR: 2003
EXTT0=
EXTT1=
EXTT2=
EXTT3=
EXTT4=
EXTT5=
EXTT6=
EXTT7=
EXTT8=
EXTT9=
EXTT10=
PLAYORDER=
